<svg width="149" height="45" viewBox="0 0 149 45" fill="none" xmlns="http://www.w3.org/2000/svg">
<path d="M26.6039 32.8017C25.9422 28.2503 26.553 23.967 29.2505 20.2345C29.2505 16.4296 29.2505 12.6246 29.2505 8.81965C29.2505 7.84123 28.6979 7.29042 27.709 7.29042C25.4987 7.28317 23.2884 7.29042 21.0708 7.29042C19.9147 7.29042 19.4567 7.776 19.4567 8.95735C19.4567 12.6898 19.4421 16.4296 19.4712 20.162C19.4785 20.8433 19.2822 21.0607 18.5915 21.0535C15.9376 21.0172 13.2838 21.01 10.6299 21.0535C9.88103 21.068 9.72107 20.8071 9.72834 20.1113C9.75742 16.3498 9.74288 12.5884 9.74288 8.8269C9.74288 7.81224 9.22666 7.29042 8.23055 7.29042C6.33287 7.29042 4.42792 7.29767 2.53024 7.29042C1.62866 7.28317 0.712539 7.18171 0 7.91371C0 19.9519 0 31.99 0 44.0209C0.618019 44.5935 1.36691 44.608 2.15943 44.6007C4.18799 44.5645 6.21654 44.5935 8.25237 44.5862C9.32118 44.5862 9.74288 44.1514 9.74288 43.0715C9.74288 39.1796 9.75742 35.2876 9.72834 31.3957C9.72107 30.671 9.88103 30.4028 10.6663 30.4173C13.291 30.4608 15.9231 30.4535 18.5478 30.4173C19.2531 30.41 19.4858 30.584 19.4785 31.3305C19.4421 35.2731 19.4567 39.2158 19.4567 43.1585C19.4567 44.1296 19.9075 44.579 20.8818 44.5862C23.2011 44.5935 25.5133 44.5935 27.8327 44.5862C28.7706 44.5862 29.2505 44.0934 29.2505 43.1367C29.2505 41.8901 29.2505 40.6363 29.2505 39.3897C27.869 37.6141 26.982 35.4108 26.6039 32.8017Z" fill="#1F51FF"/>
<path d="M43.5231 32.6704C41.7272 32.6704 39.9313 32.6776 38.1354 32.6704C37.3356 32.6704 37.2484 32.7936 37.5101 33.5183C38.0263 34.9533 39.0879 35.8013 40.4839 36.2796C42.8832 37.0986 45.3044 36.9319 47.7256 36.4391C48.5108 36.2796 49.2816 36.0187 50.0377 35.7361C50.5321 35.5476 50.8084 35.6273 51.0193 36.1202C51.87 38.1277 53.0696 39.9034 54.6619 41.4036C55.1709 41.882 54.8437 42.0777 54.4075 42.2951C52.1681 43.4039 49.7978 44.0562 47.333 44.3969C43.8721 44.8752 40.4257 44.9114 37.0521 43.8605C31.5917 42.1574 28.4434 38.4321 27.6218 32.8081C26.9093 27.9087 27.6727 23.321 30.9228 19.4001C33.3948 16.4214 36.6376 14.7907 40.5057 14.4718C43.7339 14.2036 46.8676 14.5733 49.6742 16.3344C53.375 18.6536 55.309 22.1542 55.9998 26.3505C56.2906 28.1334 56.2543 29.967 56.3779 31.7717C56.4288 32.4892 56.0943 32.7356 55.4036 32.7283C54.0221 32.7211 54.0221 32.7428 53.7313 31.3948C53.6949 31.2208 53.6513 31.0397 53.6004 30.8657C53.2223 29.5177 52.5243 29.0321 51.361 29.3003C49.9505 29.6264 49.3179 30.4888 49.6233 31.8296C49.7832 32.5326 49.6306 32.7573 48.8962 32.7356C47.1003 32.6921 45.3044 32.7211 43.5085 32.7211C43.5231 32.6921 43.5231 32.6776 43.5231 32.6704ZM42.1707 26.394C43.5449 26.394 44.9263 26.3867 46.3005 26.4012C46.8749 26.4085 47.1221 26.2273 46.9549 25.6113C46.4096 23.6037 44.5337 22.2267 42.2652 22.2122C39.8804 22.1977 38.0482 23.4805 37.4592 25.546C37.2847 26.1693 37.4519 26.4157 38.1136 26.4012C39.466 26.3795 40.8183 26.394 42.1707 26.394Z" fill="#1F51FF"/>
<path d="M66.3095 24.8731C66.3095 30.1638 66.3095 35.4545 66.3095 40.738C66.3095 41.8033 66.3095 41.7816 65.2625 41.6149C62.3469 41.1583 59.8094 39.9335 57.7227 37.8534C57.4318 37.5635 57.221 37.0562 57.221 36.6504C57.1919 27.417 57.1992 18.1909 57.1992 8.95754C57.1992 7.99362 57.5845 7.6095 58.5515 7.6095C60.711 7.6095 62.8704 7.6095 65.0298 7.6095C66.0114 7.6095 66.3095 7.91389 66.3095 8.9213C66.3095 14.241 66.3095 19.5607 66.3095 24.8731Z" fill="#1F51FF"/>
<path d="M69.0001 24.9007C69.0001 19.61 69.0001 14.3193 69.0001 9.02863C69.0001 7.90526 69.291 7.61536 70.4325 7.61536C72.5628 7.61536 74.7005 7.61536 76.8308 7.61536C77.6815 7.61536 78.1686 8.10094 78.1686 8.9489C78.1686 18.1315 78.1759 27.3069 78.1468 36.4895C78.1468 36.9026 77.9432 37.4172 77.6524 37.7144C75.4494 40.0118 72.6937 41.2512 69.5673 41.7295C69.131 41.7947 68.9929 41.628 69.0001 41.2367C69.0001 41.0845 69.0001 40.925 69.0001 40.7728C69.0001 35.4749 69.0001 30.1914 69.0001 24.9007Z" fill="#1F51FF"/>
<path d="M85.1479 12.3275C84.4281 12.2115 83.7083 12.0376 82.9812 12.0014C82.4432 11.9724 82.0288 11.7767 81.6143 11.4433C82.8285 11.3998 84.0064 10.907 85.2715 11.1534C84.1518 10.262 82.8285 9.70389 81.6361 8.88492C81.9488 8.55154 82.3414 8.45007 82.7631 8.41383C83.8901 8.31961 84.9662 8.55154 86.0495 8.83419C88.0781 9.37775 90.0485 9.2473 91.9534 8.31237C93.0513 7.77605 94.1565 7.25423 95.2616 6.72516C95.3561 6.68167 95.4434 6.6092 95.5379 6.55122C95.5234 6.52223 95.5161 6.48599 95.5016 6.457C95.3634 6.47874 95.2107 6.47874 95.0944 6.53672C94.7454 6.71791 94.4109 6.65993 94.091 6.48599C92.6223 5.65977 91.1609 4.81906 89.6922 3.99284C88.6016 3.3768 87.4964 2.76801 86.4058 2.15921C86.2676 2.07949 86.144 1.97802 85.9186 1.82583C86.2749 1.65913 86.5512 1.49969 86.8493 1.39097C87.9617 0.985113 89.1032 0.738697 90.3029 0.767687C91.3863 0.796677 92.3969 1.10107 93.4076 1.42721C94.7381 1.85482 96.0541 2.34765 97.3992 2.71727C98.9915 3.15937 100.635 3.12313 102.278 3.06515C104.074 2.99993 105.782 2.52884 107.491 2.0505C109.287 1.55042 111.119 1.24602 112.995 1.25327C113.431 1.25327 113.882 1.33299 114.297 1.4707C114.922 1.68812 114.995 2.34765 114.515 2.81874C113.94 3.38405 113.213 3.62321 112.479 3.84789C109.214 4.86979 105.942 5.8627 102.678 6.87736C98.8461 8.06595 95.0144 9.26904 91.1827 10.4721C89.3577 11.0447 87.5328 11.61 85.7078 12.1898C85.6133 12.2188 85.5187 12.2768 85.4242 12.3203C85.337 12.3275 85.2425 12.3275 85.1479 12.3275Z" fill="#1F51FF"/>
<path d="M98.7668 9.02741C100.65 8.28816 102.497 7.5634 104.445 6.79517C104.322 7.43295 104.22 7.96927 104.111 8.50558C104.089 8.6143 104.016 8.71576 103.987 8.82447C103.711 9.75941 103.064 10.3537 102.228 10.7813C101.937 10.9335 101.697 10.7741 101.472 10.6436C100.606 10.158 99.7556 9.65794 98.9049 9.15786C98.8686 9.14337 98.8395 9.10713 98.7668 9.02741Z" fill="#1F51FF"/>
<path d="M120.767 30.3075H118.928V25.6474L116.848 29.0537H116.645L114.565 25.6474V30.3075H112.726V22.2917H114.565L116.747 25.8575L118.928 22.2917H120.767V30.3075Z" fill="#1F51FF"/>
<path d="M126.002 27.2273V30.3075H124.163V27.2273L121.458 22.2917H123.552L125.079 25.3864L126.606 22.2917H128.7L126.002 27.2273Z" fill="#1F51FF"/>
<path d="M118.121 33.6353H116.049V39.89H114.209V33.6353H112.137V31.8669H118.114V33.6353H118.121Z" fill="#1F51FF"/>
<path d="M120.767 31.8669V39.89H118.928V31.8669H120.767Z" fill="#1F51FF"/>
<path d="M121.806 35.8755C121.806 33.5128 123.566 31.7009 125.994 31.7009C127.455 31.7009 128.742 32.4257 129.44 33.5563L127.855 34.4695C127.499 33.8534 126.808 33.4838 125.994 33.4838C124.569 33.4838 123.646 34.4332 123.646 35.8683C123.646 37.3033 124.569 38.2527 125.994 38.2527C126.808 38.2527 127.514 37.8831 127.855 37.267L129.44 38.1802C128.75 39.3181 127.463 40.0356 125.994 40.0356C123.558 40.0501 121.806 38.2382 121.806 35.8755Z" fill="#1F51FF"/>
<path d="M134.72 39.89L132.147 36.1792V39.89H130.307V31.8669H132.147V35.353L134.604 31.8669H136.698L133.986 35.7734L136.814 39.89H134.72Z" fill="#1F51FF"/>
<path d="M142.565 38.1216V39.8827H137.504V31.8669H142.507V33.6281H139.344V34.9544H142.216V36.6938H139.344V38.1143H142.565V38.1216Z" fill="#1F51FF"/>
<path d="M149 33.6353H146.927V39.89H145.088V33.6353H143.016V31.8669H148.992V33.6353H149Z" fill="#1F51FF"/>
<path d="M116.027 18.9508C116.027 20.2118 115.001 21.2265 113.744 21.2265C112.486 21.2265 111.461 20.2046 111.461 18.9508C111.461 17.697 112.486 16.675 113.744 16.675C115.001 16.675 116.027 17.697 116.027 18.9508ZM115.772 18.9508C115.772 17.8202 114.863 16.8997 113.736 16.8997C112.609 16.8997 111.7 17.8202 111.7 18.9508C111.7 20.0814 112.609 21.0018 113.736 21.0018C114.863 21.0091 115.772 20.0886 115.772 18.9508ZM114.42 19.2697L114.9 20.1176H114.071L113.765 19.4726H113.591V20.1176H112.82V17.7912H113.831C114.296 17.7912 114.74 18.0883 114.74 18.5739C114.74 18.871 114.616 19.1102 114.42 19.2697ZM113.591 18.8493H113.751C113.882 18.8493 113.969 18.7768 113.969 18.6681C113.969 18.5304 113.882 18.4869 113.751 18.4869H113.591V18.8493Z" fill="#1F51FF"/>
<path d="M109.657 27.1142C108.072 17.475 98.8238 12.0394 89.219 15.2863C82.0864 17.6924 78.1383 25.1429 79.6797 32.818C79.7597 33.2167 79.8688 33.608 79.9633 33.9994C80.0506 34.0139 80.1378 34.0284 80.2178 34.0429C80.3268 33.8327 80.4868 33.6298 80.545 33.4051C80.8067 32.4049 81.0394 31.3975 81.2793 30.3901C81.6719 28.7087 82.7989 28.2159 84.3112 29.0783C85.1401 29.5494 85.4746 30.2669 85.2056 31.4265C84.6675 33.782 84.064 36.1229 82.7044 38.174C82.3845 38.6595 82.4572 38.9784 82.8135 39.3988C86.6379 43.8125 91.5093 45.407 97.1806 44.5228C105.68 43.2038 111.053 35.5649 109.657 27.1142ZM94.5558 35.8765C91.2694 35.8765 88.601 32.9992 88.601 29.4479C88.601 25.8967 91.2694 23.0194 94.5558 23.0194C97.8422 23.0194 100.511 25.8967 100.511 29.4479C100.511 32.9992 97.8422 35.8765 94.5558 35.8765Z" fill="#1F51FF"/>
</svg>
