<svg width="187" height="56" viewBox="0 0 187 56" fill="none" xmlns="http://www.w3.org/2000/svg">
<path d="M33.338 40.7807C32.5089 34.9869 33.2742 29.5345 36.6545 24.7832C36.6545 19.9397 36.6545 15.0961 36.6545 10.2526C36.6545 9.00713 35.962 8.30597 34.7229 8.30597C31.9531 8.29675 29.1833 8.30597 26.4043 8.30597C24.9557 8.30597 24.3817 8.9241 24.3817 10.4279C24.3817 15.1792 24.3634 19.9397 24.3999 24.691C24.409 25.5582 24.163 25.8349 23.2974 25.8257C19.9718 25.7796 16.6462 25.7704 13.3206 25.8257C12.3822 25.8442 12.1817 25.512 12.1908 24.6264C12.2273 19.8382 12.209 15.05 12.209 10.2618C12.209 8.97023 11.5622 8.30597 10.3139 8.30597C7.93588 8.30597 5.54874 8.3152 3.17071 8.30597C2.04092 8.29675 0.892901 8.16759 0 9.09939C0 24.4234 0 39.7474 0 55.0622C0.774455 55.791 1.71291 55.8095 2.70604 55.8003C5.24807 55.7541 7.7901 55.791 10.3412 55.7818C11.6806 55.7818 12.209 55.2283 12.209 53.8536C12.209 48.8994 12.2273 43.9451 12.1908 38.9909C12.1817 38.0683 12.3822 37.727 13.3662 37.7454C16.6553 37.8008 19.9536 37.7916 23.2427 37.7454C24.1265 37.7362 24.4181 37.9576 24.409 38.9079C24.3634 43.9267 24.3817 48.9455 24.3817 53.9643C24.3817 55.2006 24.9465 55.7726 26.1675 55.7818C29.0739 55.791 31.9713 55.791 34.8778 55.7818C36.0531 55.7818 36.6545 55.1545 36.6545 53.9367C36.6545 52.3498 36.6545 50.7538 36.6545 49.1669C34.9233 46.9066 33.8118 44.102 33.338 40.7807Z" fill="#C9C9C9"/>
<path d="M54.5399 40.6136C52.2894 40.6136 50.0389 40.6229 47.7884 40.6136C46.7862 40.6136 46.6769 40.7705 47.0049 41.6931C47.6518 43.5198 48.982 44.5992 50.7314 45.2081C53.7381 46.2506 56.7721 46.0384 59.8061 45.4111C60.7902 45.2081 61.7559 44.876 62.7035 44.5162C63.3231 44.2763 63.6693 44.3778 63.9335 45.0051C64.9995 47.5607 66.5029 49.821 68.4983 51.7307C69.136 52.3396 68.726 52.5887 68.1794 52.8655C65.3731 54.277 62.4028 55.1073 59.3141 55.541C54.9772 56.1499 50.6585 56.196 46.4309 54.8582C39.5883 52.6902 35.6432 47.9481 34.6136 40.7889C33.7207 34.5523 34.6774 28.7124 38.7501 23.7213C41.8479 19.9295 45.9115 17.8537 50.7587 17.4477C54.8041 17.1064 58.731 17.5769 62.248 19.8187C66.8856 22.771 69.3092 27.227 70.1747 32.5688C70.5392 34.8383 70.4936 37.1724 70.6485 39.4697C70.7123 40.383 70.2932 40.6967 69.4276 40.6875C67.6965 40.6782 67.6965 40.7059 67.332 38.9899C67.2865 38.7685 67.2318 38.5378 67.168 38.3164C66.6942 36.6004 65.8196 35.9823 64.3618 36.3237C62.5942 36.7388 61.8015 37.8367 62.1842 39.5435C62.3846 40.4384 62.1933 40.7244 61.2731 40.6967C59.0226 40.6413 56.7721 40.6782 54.5216 40.6782C54.5399 40.6413 54.5399 40.6229 54.5399 40.6136ZM52.8452 32.6241C54.5672 32.6241 56.2983 32.6149 58.0203 32.6334C58.7401 32.6426 59.0499 32.4119 58.8404 31.6277C58.157 29.0722 55.8063 27.3193 52.9636 27.3009C49.9751 27.2824 47.6791 28.9154 46.9411 31.5447C46.7224 32.3381 46.932 32.6518 47.7611 32.6334C49.4558 32.6057 51.1505 32.6241 52.8452 32.6241Z" fill="#C9C9C9"/>
<path d="M83.0941 30.6877C83.0941 37.4225 83.0941 44.1573 83.0941 50.8829C83.0941 52.2391 83.0941 52.2114 81.7821 51.9992C78.1285 51.418 74.9486 49.8589 72.3337 47.2111C71.9693 46.842 71.705 46.1962 71.705 45.6796C71.6686 33.926 71.6777 22.1815 71.6777 10.4279C71.6777 9.20088 72.1606 8.71191 73.3724 8.71191C76.0784 8.71191 78.7845 8.71191 81.4905 8.71191C82.7205 8.71191 83.0941 9.0994 83.0941 10.3818C83.0941 17.1535 83.0941 23.9252 83.0941 30.6877Z" fill="#C9C9C9"/>
<path d="M86.4658 30.7232C86.4658 23.9884 86.4658 17.2536 86.4658 10.5188C86.4658 9.08876 86.8302 8.71973 88.2607 8.71973C90.9303 8.71973 93.609 8.71973 96.2786 8.71973C97.3446 8.71973 97.9551 9.33785 97.9551 10.4173C97.9551 22.1063 97.9642 33.7862 97.9277 45.4752C97.9277 46.0011 97.6726 46.6561 97.3082 47.0344C94.5475 49.9589 91.0943 51.5366 87.1765 52.1455C86.6298 52.2285 86.4567 52.0163 86.4658 51.5181C86.4658 51.3244 86.4658 51.1214 86.4658 50.9277C86.4658 44.1836 86.4658 37.458 86.4658 30.7232Z" fill="#C9C9C9"/>
<path d="M106.701 14.718C105.799 14.5704 104.897 14.349 103.986 14.3029C103.312 14.266 102.792 14.0169 102.273 13.5925C103.795 13.5371 105.271 12.9098 106.856 13.2235C105.453 12.0887 103.795 11.3783 102.3 10.3358C102.692 9.91142 103.184 9.78226 103.713 9.73613C105.125 9.61619 106.473 9.91142 107.831 10.2712C110.373 10.9632 112.842 10.7971 115.229 9.60697C116.605 8.92426 117.99 8.26 119.375 7.58652C119.493 7.53117 119.602 7.43891 119.721 7.3651C119.703 7.3282 119.694 7.28207 119.675 7.24517C119.502 7.27285 119.311 7.27285 119.165 7.34665C118.728 7.5773 118.309 7.50349 117.908 7.28207C116.067 6.23033 114.236 5.16014 112.396 4.10841C111.029 3.32421 109.644 2.54925 108.277 1.77428C108.104 1.6728 107.949 1.54364 107.667 1.3499C108.113 1.13771 108.459 0.934739 108.833 0.796352C110.227 0.279709 111.658 -0.0339678 113.161 0.00293529C114.518 0.0398384 115.785 0.427321 117.051 0.842481C118.719 1.3868 120.368 2.01415 122.053 2.48467C124.049 3.04744 126.108 3.00131 128.167 2.92751C130.418 2.84447 132.559 2.2448 134.7 1.6359C136.95 0.999319 139.246 0.611837 141.597 0.621062C142.144 0.621062 142.709 0.722546 143.228 0.897836C144.011 1.17461 144.103 2.01415 143.501 2.61383C142.781 3.33344 141.87 3.63789 140.95 3.92389C136.859 5.22472 132.759 6.48866 128.668 7.78026C123.867 9.29329 119.065 10.8248 114.263 12.3562C111.976 13.0851 109.689 13.8047 107.403 14.5428C107.284 14.5797 107.166 14.6535 107.047 14.7088C106.938 14.718 106.819 14.718 106.701 14.718Z" fill="#C9C9C9"/>
<path d="M123.767 10.5173C126.127 9.57629 128.441 8.65371 130.883 7.67578C130.728 8.48765 130.601 9.17036 130.464 9.85306C130.437 9.99145 130.345 10.1206 130.309 10.259C129.963 11.4491 129.152 12.2056 128.104 12.75C127.74 12.9437 127.439 12.7407 127.156 12.5747C126.072 11.9565 125.006 11.32 123.94 10.6834C123.895 10.6649 123.858 10.6188 123.767 10.5173Z" fill="#C9C9C9"/>
<path d="M151.337 37.6061H149.031V31.6739L146.426 36.01H146.171L143.565 31.6739V37.6061H141.26V27.4023H143.565L146.298 31.9414L149.031 27.4023H151.337V37.6061Z" fill="#C9C9C9"/>
<path d="M157.897 33.6851V37.6061H155.592V33.6851L152.202 27.4023H154.826L156.74 31.3417L158.653 27.4023H161.277L157.897 33.6851Z" fill="#C9C9C9"/>
<path d="M148.02 41.8419H145.424V49.8038H143.118V41.8419H140.522V39.5908H148.011V41.8419H148.02Z" fill="#C9C9C9"/>
<path d="M151.337 39.5908V49.8038H149.031V39.5908H151.337Z" fill="#C9C9C9"/>
<path d="M152.638 44.693C152.638 41.6854 154.843 39.3789 157.886 39.3789C159.718 39.3789 161.33 40.3015 162.205 41.7407L160.219 42.9032C159.772 42.119 158.907 41.6484 157.886 41.6484C156.1 41.6484 154.943 42.857 154.943 44.6837C154.943 46.5104 156.1 47.719 157.886 47.719C158.907 47.719 159.791 47.2485 160.219 46.4643L162.205 47.6268C161.339 49.0752 159.727 49.9885 157.886 49.9885C154.834 50.007 152.638 47.7006 152.638 44.693Z" fill="#C9C9C9"/>
<path d="M168.822 49.8038L165.596 45.0802V49.8038H163.291V39.5908H165.596V44.0284L168.676 39.5908H171.3L167.901 44.5635L171.446 49.8038H168.822Z" fill="#C9C9C9"/>
<path d="M178.652 47.5527V49.7945H172.31V39.5908H178.579V41.8327H174.615V43.521H178.214V45.7352H174.615V47.5434H178.652V47.5527Z" fill="#C9C9C9"/>
<path d="M186.715 41.8419H184.118V49.8038H181.813V41.8419H179.217V39.5908H186.706V41.8419H186.715Z" fill="#C9C9C9"/>
<path d="M145.396 23.1488C145.396 24.7541 144.111 26.0457 142.535 26.0457C140.959 26.0457 139.674 24.7449 139.674 23.1488C139.674 21.5528 140.959 20.252 142.535 20.252C144.111 20.252 145.396 21.5528 145.396 23.1488ZM145.077 23.1488C145.077 21.7096 143.938 20.538 142.526 20.538C141.114 20.538 139.975 21.7096 139.975 23.1488C139.975 24.5881 141.114 25.7597 142.526 25.7597C143.938 25.769 145.077 24.5973 145.077 23.1488ZM143.382 23.5548L143.984 24.6342H142.945L142.562 23.8131H142.344V24.6342H141.378V21.6727H142.644C143.227 21.6727 143.783 22.051 143.783 22.6691C143.783 23.0474 143.628 23.3518 143.382 23.5548ZM142.344 23.0197H142.544C142.708 23.0197 142.817 22.9274 142.817 22.789C142.817 22.6138 142.708 22.5584 142.544 22.5584H142.344V23.0197Z" fill="#C9C9C9"/>
<path d="M137.414 33.5411C135.428 21.2708 123.839 14.3515 111.803 18.4846C102.865 21.5476 97.9171 31.0317 99.8487 40.8018C99.9489 41.3092 100.086 41.8074 100.204 42.3056C100.313 42.324 100.423 42.3425 100.523 42.3609C100.66 42.0934 100.86 41.8351 100.933 41.5491C101.261 40.2759 101.552 38.9935 101.853 37.7111C102.345 35.5708 103.757 34.9434 105.653 36.0413C106.691 36.641 107.11 37.5543 106.773 39.0304C106.099 42.0288 105.343 45.0087 103.639 47.6196C103.238 48.2377 103.329 48.6437 103.776 49.1788C108.568 54.7973 114.673 56.8269 121.779 55.7014C132.43 54.0223 139.164 44.2983 137.414 33.5411ZM118.49 44.6951C114.372 44.6951 111.028 41.0324 111.028 36.5118C111.028 31.9912 114.372 28.3285 118.49 28.3285C122.609 28.3285 125.952 31.9912 125.952 36.5118C125.952 41.0324 122.609 44.6951 118.49 44.6951Z" fill="#C9C9C9"/>
</svg>
